# xmcd
#
# Track frame offsets:
#	150
#	16155
#	27652
#	38042
#	49295
#	64952
#	89870
#	102062
#	114392
#	134700
#	158545
#	167462
#	182962
#	193500
#	207015
#	223892
#	239535
#	253540
#	263977
#	276977
#	291167
#	309790
#	335800
#
# Disc length: 4795
#
# Revision: 2
# Processed by: cddbd v1.5.1PL0 Copyright (c) Steve Scherf et al.
# Submitted via: EasyCDDAExtractor 5.0.6
# Normalized: r1:DSETVAR1
#
DISCID=5f12b917
DTITLE=Various Artist - Lady sings the blues CD2
DYEAR=1900
DGENRE=
TTITLE0=Ella Fitzgerald - Every time we say goodbye
TTITLE1=Julie London - Fly me to the moon
TTITLE2=Dinah Washington - Call me irresponsible
TTITLE3=Lena Horne, Ray Ellis and Orchestra - In love in vain
TTITLE4=Tina Turner - Night time is the right time
TTITLE5=Bonnie Raitt - I Can't make you love me
TTITLE6=Erma Franklin - Light my fire
TTITLE7=Aretha Franklin - Today I sing the blues
TTITLE8=Janis Joplin - Me and Bobby McGee
TTITLE9=Dianne Reeves - In a sentimental mood
TTITLE10=Nancy Wilson - Wives and lovers
TTITLE11=Nina Simone - Wild is the wind
TTITLE12=Kay Starr - Baby won't you please come home
TTITLE13=Sue Raney - When your lover has gone
TTITLE14=Peggy Lee - The man I love
TTITLE15=Sarah Vaughan, Jimmie Jones and Orchestra - Stormy weather
TTITLE16=Betty Lavette - Let me down easy
TTITLE17=Irma Thomas - Wish someone would care
TTITLE18=Betty Swann - Tell it like it is
TTITLE19=Billie Holiday with the Paul Whiteman orchestra - Trav'lin light
TTITLE20=Cassandra Wilson - Time after time
TTITLE21=Lisa Ekdahl - Daybreak
TTITLE22=Data - Player
EXTD=
EXTT0=
EXTT1=
EXTT2=
EXTT3=
EXTT4=
EXTT5=
EXTT6=
EXTT7=
EXTT8=
EXTT9=
EXTT10=
EXTT11=
EXTT12=
EXTT13=
EXTT14=
EXTT15=
EXTT16=
EXTT17=
EXTT18=
EXTT19=
EXTT20=
EXTT21=
EXTT22=
PLAYORDER=
